<?xml version="1.0" standalone="no"?><svg xmlns="http://www.w3.org/2000/svg" viewBox="0 0 1440 320">
    <path fill="#efb810" fill-opacity="1"
        d="M0,96L26.7,90.7C53.3,85,107,75,160,101.3C213.3,128,267,192,320,186.7C373.3,181,427,107,480,112C533.3,117,587,203,640,218.7C693.3,235,747,181,800,160C853.3,139,907,149,960,165.3C1013.3,181,1067,203,1120,192C1173.3,181,1227,139,1280,106.7C1333.3,75,1387,53,1413,42.7L1440,32L1440,320L1413.3,320C1386.7,320,1333,320,1280,320C1226.7,320,1173,320,1120,320C1066.7,320,1013,320,960,320C906.7,320,853,320,800,320C746.7,320,693,320,640,320C586.7,320,533,320,480,320C426.7,320,373,320,320,320C266.7,320,213,320,160,320C106.7,320,53,320,27,320L0,320Z">
    </path>
</svg>